<svg xmlns="http://www.w3.org/2000/svg" enable-background="new 0 0 48 48" viewBox="0 0 48 48"><path d="M11.1 11.1c2.9 0 5.3-2.4 5.3-5.3 0-2.9-2.4-5.3-5.3-5.3-2.9 0-5.3 2.4-5.3 5.3C5.8 8.7 8.2 11.1 11.1 11.1zM16.1 12.5h-10C3 12.5.5 15 .5 18v11.1c0 .9.7 1.6 1.6 1.6h3.1L6.9 46c.1.8.8 1.5 1.6 1.5h5.1c.8 0 1.5-.6 1.6-1.5l1.6-15.3H20c.9 0 1.6-.7 1.6-1.6V18C21.7 15 19.2 12.5 16.1 12.5zM45.1 14.2l-2-1.1c.3-.7.4-1.4.4-2.2 0-.8-.1-1.5-.4-2.2l2-1.1.6 1.1 1.7-1-2.3-4-1.7 1 .6 1.1-2 1.1c-.9-1.1-2.3-1.9-3.8-2.2V2.5h1.3v-2h-4.6v2h1.3v2.3c-1.5.2-2.8 1-3.8 2.2l-2-1.1.6-1.1-1.7-1-2.3 4 1.7 1 .6-1.1 2 1.1c-.3.7-.4 1.4-.4 2.2 0 .8.1 1.5.4 2.2l-2 1.1L29 13.1l-1.7 1 2.3 4 1.7-1-.6-1.1 2-1.1c.9 1.1 2.3 1.9 3.8 2.2l0 2.3h-1.3v2h4.6v-2h-1.3l0-2.3c1.5-.2 2.8-1 3.8-2.2l2 1.1L43.5 17l1.7 1 2.3-4-1.7-1L45.1 14.2z"/></svg>