<?xml version="1.0" encoding="UTF-8"?><svg xmlns="http://www.w3.org/2000/svg" viewBox="0 0 32 32"><path d="M16 9a4 4 0 1 0 0-8 4 4 0 0 0 0 8zm0-6c1.103 0 2 .897 2 2s-.897 2-2 2-2-.897-2-2 .898-2 2-2zm3 8h-6a2 2 0 0 0-2 2v8l2 2v7a1 1 0 0 0 1 1h4a1 1 0 0 0 1-1v-7l2-2v-8a2 2 0 0 0-2-2z"/><metadata><rdf:RDF xmlns:rdf="http://www.w3.org/1999/02/22-rdf-syntax-ns#" xmlns:rdfs="http://www.w3.org/2000/01/rdf-schema#" xmlns:dc="http://purl.org/dc/elements/1.1/"><rdf:Description about="https://iconscout.com/legal#licenses" dc:title="person" dc:description="person" dc:publisher="Iconscout" dc:date="2017-09-15" dc:format="image/svg+xml" dc:language="en"><dc:creator><rdf:Bag><rdf:li>IBM-Design</rdf:li></rdf:Bag></dc:creator></rdf:Description></rdf:RDF></metadata></svg>